PathFileType	4	(X/Y/Z)	C:/Users/opensim2020/Desktop/walking_exp_matlab/subject01_walking11_straight_02.trc	
DataRate	CameraRate	NumFrames	NumMarkers	Units	OrigDataRate	OrigDataStartFrame	OrigNumFrames	
100.00	100.00	8	44	mm	100.00	2074	266	
Frame#	Time	LFHD			RFHD			LBHD			RBHD			C7			T10			CLAV			STRN			RBAK			LSHO			LUPA			LELB			LFRM			LWRA			LWRB			LFIN			RSHO			RUPA			RELB			RFRM			RWRA			RWRB			RFIN			LASI			RASI			LPSI			RPSI			LTHI			LKNE			LTIB			LANK			LHEE			LTOE			RTHI			RKNE			RTIB			RANK			RHEE			RTOE			*39			*40			*41			*42			*43			
		X1	Y1	Z1	X2	Y2	Z2	X3	Y3	Z3	X4	Y4	Z4	X5	Y5	Z5	X6	Y6	Z6	X7	Y7	Z7	X8	Y8	Z8	X9	Y9	Z9	X10	Y10	Z10	X11	Y11	Z11	X12	Y12	Z12	X13	Y13	Z13	X14	Y14	Z14	X15	Y15	Z15	X16	Y16	Z16	X17	Y17	Z17	X18	Y18	Z18	X19	Y19	Z19	X20	Y20	Z20	X21	Y21	Z21	X22	Y22	Z22	X23	Y23	Z23	X24	Y24	Z24	X25	Y25	Z25	X26	Y26	Z26	X27	Y27	Z27	X28	Y28	Z28	X29	Y29	Z29	X30	Y30	Z30	X31	Y31	Z31	X32	Y32	Z32	X33	Y33	Z33	X34	Y34	Z34	X35	Y35	Z35	X36	Y36	Z36	X37	Y37	Z37	X38	Y38	Z38	X39	Y39	Z39	X40	Y40	Z40	X41	Y41	Z41	X42	Y42	Z42	X43	Y43	Z43	X44	Y44	Z44	

134	1.330	-962.90515	-35.87873	1667.76538	-1072.47668	-69.77347	1670.94519	-992.21649	81.41614	1634.58728	-1109.12097	48.29991	1637.82190	-1025.57336	126.99593	1434.97778	-1033.03882	163.01341	1140.96460	-1026.43628	-14.85410	1366.39307	-1022.29065	-58.78920	1211.57593	-1100.44031	184.53561	1238.98145	-865.05438	45.96973	1398.38538	-778.55920	70.47065	1214.75049	-773.70251	71.03061	1063.27100	-741.57941	20.05496	963.19659	-750.50488	-75.49698	860.58630	-728.31030	-21.14867	848.61499	-711.31421	-78.94602	788.86176	-1176.10400	52.89004	1396.49451	-1272.91467	123.93880	1199.68823	-1275.71619	127.75466	1075.27710	-1312.14990	107.14526	958.22461	-1304.28101	28.40035	838.84406	-1339.29065	75.58854	842.09949	-1338.73669	41.94168	760.92059	-928.24530	-7.43626	932.76245	-1144.68652	-7.60933	939.03192	-983.04498	178.16623	944.69849	-1129.56995	174.46303	946.53937	-886.01556	19.10498	597.28833	-906.72797	26.92410	463.14099	-900.00195	90.56665	283.98090	-954.18695	143.07487	72.63489	-1004.38019	193.28107	45.66217	-954.66730	-1.78296	34.36996	-1212.80200	-47.47860	618.21307	-1191.80225	-88.24787	464.32608	-1194.29761	26.47264	329.08856	-1148.41943	131.92766	151.46198	-1092.57898	186.80873	132.00310	-1157.72546	24.95996	58.76286	-1051.52112	-57.25100	1705.71960	-3101.91260	1973.09583	1023.60608	-3140.70264	2012.57446	1022.09094						 
135	1.340	-963.08203	-43.62773	1667.72058	-1072.56824	-77.39597	1670.74341	-992.24982	73.74019	1634.70959	-1109.22461	40.74885	1637.75488	-1025.07935	119.57697	1435.04443	-1032.22168	156.08766	1141.11853	-1026.23022	-22.18344	1366.33301	-1022.02490	-65.86126	1211.43579	-1099.65393	177.46350	1239.06653	-864.77576	38.16377	1398.62817	-778.00922	62.27937	1215.09802	-772.85748	62.12323	1063.58716	-740.67310	10.14893	964.01874	-749.22772	-86.54196	862.55957	-727.34607	-32.32042	849.93201	-710.28955	-90.70901	790.65985	-1175.85083	45.87186	1396.32397	-1272.34155	117.57830	1199.71655	-1275.08728	121.70546	1075.26599	-1311.53210	101.40469	958.18457	-1303.85620	22.81786	838.71918	-1338.71130	70.01162	842.00641	-1338.34143	36.52604	760.82965	-928.00146	-14.06717	932.27344	-1144.29968	-14.22532	939.19672	-982.75269	171.55522	944.90161	-1129.30151	167.74812	946.75177	-885.95245	15.48511	596.75446	-906.65204	24.71947	462.65900	-900.04248	89.18569	283.83542	-954.26031	142.89667	72.87576	-1004.48669	193.19771	45.99360	-954.70721	-1.91533	34.09658	-1212.37720	-56.21199	619.25739	-1191.06348	-98.34547	465.65997	-1193.88831	10.75267	325.61450	-1147.78491	108.10519	143.45851	-1091.80701	162.17384	121.44775	-1157.92566	-3.14671	56.30746	-1051.61719	-64.92756	1705.50708	-3101.91919	1973.12427	1023.45526	-3140.58350	2012.51355	1022.03583						 
136	1.350	-963.25366	-51.29488	1667.60938	-1072.87952	-84.99213	1670.47778	-992.31360	66.33424	1634.73987	-1109.29333	33.25196	1637.56128	-1024.74121	112.15988	1435.08252	-1031.49780	149.08089	1141.22888	-1026.16882	-29.48642	1366.23547	-1021.91974	-73.05156	1211.23303	-1098.90442	170.44794	1239.06641	-864.57544	30.31369	1398.83191	-777.48431	54.01984	1215.43030	-772.10498	53.58077	1063.75415	-739.77765	0.34456	964.82770	-748.06458	-97.52795	864.54852	-726.58331	-43.29488	851.24121	-709.39117	-102.41834	792.40564	-1175.71960	38.85170	1396.13757	-1271.82300	111.12971	1199.62354	-1274.52637	115.61057	1075.21069	-1311.24768	95.55743	958.15857	-1303.50793	17.12996	838.50336	-1338.24207	64.33989	841.86444	-1337.82446	30.95620	760.57904	-927.76093	-20.58449	931.74078	-1143.99438	-20.91931	939.29681	-982.53204	164.97133	945.02600	-1129.14258	161.10278	946.92206	-885.91071	11.70849	596.32996	-906.46075	22.31704	462.23685	-900.00714	87.85134	283.84595	-954.32953	142.62651	73.13472	-1004.60229	193.15915	46.41210	-954.69287	-2.05495	34.05259	-1211.88269	-64.36051	620.02325	-1190.26685	-107.59731	466.96445	-1193.58191	-4.91592	322.13983	-1147.59680	84.07468	135.67819	-1091.89832	136.93352	110.73166	-1158.31299	-31.29033	54.25531	-1051.98462	-72.60954	1705.32910	-3101.91309	1973.05383	1023.47626	-3140.73608	2012.57568	1021.96143						 
137	1.360	-963.56183	-58.90921	1667.57874	-1073.06250	-92.57038	1670.16858	-992.53497	58.71726	1634.74182	-1109.52393	25.68549	1637.38403	-1024.40234	104.68204	1435.06885	-1030.90955	142.08136	1141.30579	-1026.11292	-36.95140	1366.04651	-1021.78131	-80.21199	1210.99658	-1098.27417	163.31996	1239.05530	-864.42737	22.55896	1398.91125	-777.01263	45.80282	1215.73889	-771.39075	44.77139	1064.00757	-739.10205	-9.23553	965.57520	-747.13214	-108.29240	866.43671	-725.77887	-54.16607	852.36243	-708.51709	-113.99883	794.32062	-1175.45056	31.72700	1395.95630	-1271.37354	104.59109	1199.50366	-1274.01111	109.43037	1075.11072	-1310.54688	89.71851	957.94745	-1303.28296	11.42657	838.29767	-1337.85535	58.79624	841.67218	-1337.63892	25.38307	760.37091	-927.59271	-27.03898	931.18695	-1143.72046	-27.61810	939.30292	-982.43323	158.47192	945.10254	-1129.02271	154.40868	947.08069	-885.96796	8.02946	595.83020	-906.37073	19.92005	461.83582	-900.08789	86.49609	283.81012	-954.28662	142.47646	73.44513	-1004.70160	193.00162	46.89792	-954.68213	-2.05972	34.10916	-1211.37524	-72.05653	620.71881	-1189.63147	-116.71961	467.69025	-1193.58301	-20.58170	318.61282	-1147.59509	59.64812	128.13602	-1091.75745	111.56960	100.92176	-1158.78516	-59.53282	52.57458	-1052.09863	-80.12222	1705.09729	-3102.00537	1973.03992	1023.55371	-3140.64185	2012.50195	1022.01172						 
138	1.370	-963.62213	-66.48211	1667.58899	-1073.53564	-100.16016	1669.82520	-992.80157	51.16401	1634.67200	-1109.77234	18.12830	1637.08374	-1024.25708	97.25348	1434.98926	-1030.42676	135.08569	1141.29614	-1026.21545	-44.32905	1365.80273	-1021.72791	-87.42002	1210.69312	-1097.77209	156.22328	1239.00305	-864.43549	14.66990	1398.95959	-776.60229	37.44595	1215.96411	-770.69495	36.16164	1064.19324	-738.44049	-18.87622	966.18250	-746.33032	-119.03011	868.27209	-725.33148	-64.78905	853.61060	-707.69202	-125.45824	796.25580	-1175.54504	24.59273	1395.77515	-1271.01221	98.10497	1199.30103	-1273.59192	103.17261	1074.94604	-1310.14819	83.70839	957.70868	-1303.17078	5.57696	837.95612	-1337.60034	53.08275	841.41998	-1337.50854	19.73494	760.10291	-927.40631	-33.39223	930.55963	-1143.52051	-34.42339	939.20355	-982.44653	151.98911	945.09265	-1128.97241	147.62796	947.12390	-886.05463	4.15498	595.42145	-906.14185	17.43695	461.58228	-900.06610	85.06159	283.83548	-954.40253	142.09460	73.74370	-1004.75293	192.84167	47.46142	-954.68597	-2.12934	34.02470	-1211.14258	-79.14719	620.86627	-1189.04736	-125.31650	468.30316	-1193.55994	-35.91121	315.31015	-1148.11462	34.97075	120.97099	-1092.17456	85.37817	90.89873	-1159.60608	-87.94997	51.25562	-1052.65955	-87.82351	1704.76147	-3101.90894	1973.17297	1023.48987	-3140.71948	2012.51953	1022.12347						 
139	1.380	-964.35693	-74.09818	1667.13452	-1073.87646	-107.79739	1669.39404	-993.11475	43.64833	1634.48877	-1110.11670	10.58127	1636.72766	-1024.11389	89.76258	1434.77039	-1030.16040	128.08017	1141.23364	-1026.28247	-51.84325	1365.43848	-1021.69086	-94.65616	1210.28589	-1097.38318	149.03168	1238.87061	-864.54114	6.85773	1398.91797	-776.28375	29.14704	1216.10437	-770.15979	27.65071	1064.25964	-737.91504	-28.44093	966.80310	-745.63629	-129.60085	870.03723	-724.97791	-75.87113	854.67157	-707.13153	-136.80269	797.94684	-1175.50049	17.41810	1395.44128	-1270.89429	91.39374	1199.07458	-1273.23218	96.84508	1074.69543	-1309.80847	77.70346	957.44702	-1303.12585	-0.32615	837.59949	-1337.32751	47.37432	841.14307	-1337.39111	14.05264	759.83911	-927.16968	-39.71582	929.94568	-1143.24402	-41.26728	939.10205	-982.55847	145.47836	945.00665	-1129.07813	140.96631	947.18909	-886.13770	0.27011	595.03027	-906.16925	14.62869	461.01044	-900.07239	83.40456	283.86261	-954.36865	141.73503	74.17783	-1004.82281	192.71375	48.04704	-954.74786	-2.22557	33.97614	-1210.87854	-85.63190	620.46149	-1188.43286	-133.48987	468.77197	-1193.66553	-51.01018	312.10806	-1148.98242	10.15651	114.33223	-1093.03857	58.63551	81.65109	-1160.75854	-116.01763	50.76048	-1053.04651	-95.43477	1704.35437	-3101.95972	1973.12048	1023.47162	-3140.73291	2012.53845	1021.95062						 
140	1.390	-964.41425	-81.70996	1667.12158	-1074.33374	-115.41196	1668.91357	-993.46136	36.04234	1634.23730	-1110.53918	2.96264	1636.30908	-1024.19958	82.24130	1434.59509	-1030.02148	121.02827	1141.12708	-1026.42981	-59.32500	1365.09814	-1021.75885	-101.89162	1209.80322	-1097.17310	141.87720	1238.68433	-864.68817	-1.04253	1398.82483	-776.01984	20.85476	1216.26501	-769.69580	19.15306	1064.26086	-737.49371	-37.84753	967.27014	-745.09924	-140.11227	871.76843	-724.73285	-86.38766	855.64709	-706.59937	-147.96596	799.75732	-1175.51709	10.08131	1394.91235	-1270.39783	84.83620	1198.68884	-1272.96338	90.48816	1074.37146	-1309.57886	71.60432	957.10217	-1303.15942	-6.31100	837.17078	-1337.13318	41.47810	840.73578	-1337.38110	8.26866	759.41833	-926.93811	-45.96149	929.31958	-1143.02454	-48.18835	938.91217	-982.73810	138.98317	944.84058	-1129.16614	134.12808	947.13531	-886.20795	-3.83693	594.59491	-905.99036	11.95128	460.78326	-900.18103	81.70848	283.88647	-954.37933	141.38757	74.60954	-1004.91400	192.64609	48.69706	-954.75311	-2.13544	34.04178	-1210.80750	-91.89397	620.26685	-1188.02246	-141.30551	469.21588	-1194.00085	-65.83813	309.12347	-1149.48560	-15.54569	108.06828	-1094.16418	31.97098	73.27686	-1161.33923	-144.18011	50.47639	-1053.68933	-103.13966	1703.91199	-3102.02319	1973.17480	1023.45563	-3140.82007	2012.52710	1021.98102						 
141	1.400	-965.03400	-89.41635	1666.66833	-1074.90906	-123.07673	1668.31921	-993.91644	28.41608	1633.90601	-1111.03638	-4.69048	1635.79492	-1024.33997	74.73784	1434.27197	-1030.07825	113.96193	1140.87109	-1026.73389	-66.77761	1364.59155	-1021.85297	-109.02457	1209.30408	-1097.10254	134.62474	1238.38501	-864.97473	-8.83489	1398.63281	-775.84735	12.54671	1216.28613	-769.39105	10.95127	1064.24976	-737.15100	-47.16810	967.70557	-744.74567	-150.43396	873.27954	-724.40619	-96.87595	856.54736	-706.11407	-159.12672	801.57019	-1175.73535	2.79724	1394.44263	-1270.22852	78.12407	1198.27576	-1272.80957	83.99177	1074.03223	-1309.65930	65.38335	956.78064	-1303.21936	-12.32479	836.66266	-1337.13257	35.44640	840.32361	-1337.43738	2.42517	758.89777	-926.68365	-52.30650	928.66675	-1142.76282	-55.20861	938.51740	-983.04895	132.46854	944.58539	-1129.29614	127.09088	946.98621	-886.29279	-7.92439	594.11377	-905.94830	9.16467	460.33569	-900.22986	79.93977	283.81570	-954.31506	141.13799	75.12774	-1004.93158	192.45828	49.31018	-954.72205	-2.33019	33.85259	-1210.81775	-97.61797	619.47577	-1187.37964	-148.82777	469.22159	-1194.45618	-80.59351	306.27924	-1150.50659	-40.96659	102.44769	-1095.40662	5.44414	65.44026	-1162.02271	-172.17656	50.91175	-1054.15430	-110.87591	1703.30884	-3101.81714	1973.12756	1023.63000	-3140.77124	2012.58093	1022.11499						 
